<?xml version="1.0" standalone="no"?>
<!DOCTYPE svg PUBLIC "-//W3C//DTD SVG 20010904//EN"
 "http://www.w3.org/TR/2001/REC-SVG-20010904/DTD/svg10.dtd">
<svg version="1.0" xmlns="http://www.w3.org/2000/svg"
 width="512.000000pt" height="512.000000pt" viewBox="0 0 512.000000 512.000000"
 preserveAspectRatio="xMidYMid meet">
<metadata>
Created by potrace 1.14, written by Peter Selinger 2001-2017
</metadata>
<g transform="translate(0.000000,512.000000) scale(0.100000,-0.100000)"
fill="#000000" stroke="none">
<path d="M2379 5116 c-2 -2 -40 -6 -83 -10 -44 -4 -82 -9 -86 -11 -3 -2 -31
-6 -61 -10 -30 -3 -61 -7 -69 -9 -8 -2 -34 -7 -57 -11 -24 -4 -43 -12 -43 -17
0 -5 -4 -6 -10 -3 -5 3 -33 -1 -62 -10 -29 -8 -53 -15 -53 -13 0 5 -202 -65
-212 -74 -7 -6 -13 -7 -13 -3 0 4 -11 0 -25 -9 -14 -9 -25 -14 -25 -11 0 3
-15 -2 -32 -12 -18 -9 -36 -16 -40 -15 -5 1 -8 -3 -8 -8 0 -5 -3 -9 -7 -8 -8
3 -182 -81 -193 -92 -5 -5 -34 -22 -75 -44 -75 -41 -288 -200 -374 -280 -85
-79 -177 -173 -221 -225 -25 -29 -60 -70 -77 -90 -18 -20 -33 -39 -33 -42 0
-3 -9 -16 -19 -28 -10 -12 -43 -59 -72 -104 -30 -45 -57 -83 -61 -85 -5 -2 -8
-9 -8 -16 0 -18 -47 -83 -62 -84 -64 -4 -115 -27 -131 -59 -15 -29 -19 -143
-5 -143 4 0 8 -9 8 -20 0 -11 5 -20 11 -20 11 0 9 -41 -3 -50 -4 -3 -9 -15
-11 -25 -1 -11 -6 -26 -10 -32 -5 -7 -10 -21 -12 -30 -2 -10 -11 -36 -19 -58
-8 -22 -15 -49 -16 -60 0 -12 -4 -25 -9 -30 -13 -14 -46 -150 -55 -230 -2 -16
-6 -37 -9 -45 -6 -16 -13 -67 -25 -170 -9 -85 -8 -460 1 -530 18 -132 33 -222
54 -310 8 -36 16 -69 17 -75 6 -24 27 -101 33 -115 3 -8 8 -23 10 -33 1 -10
10 -31 18 -46 8 -16 11 -31 8 -35 -4 -3 -1 -6 6 -6 6 0 11 -6 9 -12 -1 -7 8
-35 20 -62 12 -27 22 -50 22 -51 0 -1 7 -19 15 -39 8 -20 15 -38 15 -41 -1 -3
6 -13 15 -21 8 -9 13 -20 10 -25 -4 -5 -2 -9 3 -9 4 0 18 -21 31 -48 54 -113
186 -314 282 -427 99 -117 307 -325 327 -325 6 0 12 -4 12 -10 0 -22 298 -228
420 -290 25 -12 48 -27 51 -32 3 -5 9 -9 13 -8 4 1 30 -10 59 -24 29 -13 59
-26 67 -28 8 -2 21 -9 28 -15 12 -12 34 -17 55 -14 4 0 7 -4 7 -9 0 -6 8 -10
18 -10 10 0 23 -5 30 -12 7 -7 12 -9 12 -5 0 3 20 -2 45 -13 25 -11 45 -17 45
-13 0 3 6 1 13 -5 7 -6 24 -12 37 -14 14 -2 30 -6 35 -10 10 -5 194 -49 225
-53 8 -1 31 -5 50 -8 134 -24 236 -32 435 -32 99 0 212 3 250 8 157 17 136 14
289 46 93 20 223 54 256 68 8 4 20 8 25 8 12 2 40 13 82 31 17 8 33 14 36 14
3 0 16 4 29 9 13 5 27 9 32 9 5 0 12 4 15 9 9 11 79 43 96 43 8 0 15 4 15 9 0
10 27 21 44 20 5 0 12 5 17 13 5 7 12 13 16 13 8 0 227 130 248 147 6 4 37 28
70 53 143 105 365 311 365 338 0 4 5 5 10 2 6 -3 10 -2 10 3 0 5 12 22 26 38
51 58 61 70 106 129 71 94 170 251 224 355 27 52 49 97 49 100 1 3 10 23 22
45 11 22 21 42 22 45 1 3 4 15 7 28 4 12 10 22 15 22 5 0 8 3 7 8 -1 4 9 39
22 77 13 39 24 72 25 75 0 3 3 10 6 15 4 6 10 26 15 45 11 49 11 49 14 55 3 6
4 9 18 75 7 30 15 66 18 80 15 64 23 109 29 155 3 28 8 66 11 85 9 67 11 446
3 520 -10 100 -18 160 -24 190 -3 14 -8 41 -11 60 -3 19 -10 40 -15 46 -5 6
-6 13 -3 16 2 3 -5 41 -16 84 -12 44 -25 93 -30 109 -4 17 -17 55 -28 87 -11
31 -18 59 -15 62 4 3 1 6 -5 6 -6 0 -15 16 -21 36 -8 29 -6 41 11 70 24 41 26
125 3 170 -12 26 -24 33 -72 44 -80 18 -90 25 -114 73 -26 50 -149 232 -178
264 -12 12 -21 25 -21 29 0 4 -11 17 -25 30 -14 13 -25 26 -25 30 0 12 -212
228 -284 289 -26 22 -53 45 -59 51 -7 6 -50 38 -97 73 -47 34 -92 68 -100 74
-8 7 -17 13 -20 13 -3 0 -31 17 -62 37 -32 20 -81 48 -110 63 -29 15 -54 30
-56 35 -2 5 -11 9 -21 9 -9 0 -27 7 -39 16 -12 8 -22 12 -22 7 0 -4 -4 -2 -9
5 -4 7 -14 15 -22 16 -13 3 -63 23 -114 46 -36 16 -170 63 -185 64 -9 1 -20 4
-25 8 -6 3 -23 9 -40 13 -16 5 -34 9 -40 11 -5 2 -19 5 -30 8 -127 30 -168 37
-180 32 -7 -2 -15 -1 -17 4 -2 4 -32 11 -68 15 -36 4 -76 10 -90 12 -32 5
-446 14 -451 9z"/>
</g>
</svg>
